<svg width="650" height="712" viewBox="0 0 650 712" fill="currentColor" xmlns="http://www.w3.org/2000/svg">
<path d="M253.661 711.197C210.785 708.97 179.966 706.192 148.661 701.735C53.7383 688.221 7.72631 666.444 1.18158 631.934C-2.4911 612.568 2.58678 583.644 13.7896 560.119C23.2914 540.165 42.0085 516.995 61.0486 501.617C101.453 468.983 161.833 445.395 229.161 435.941C258.483 431.823 266.88 431.324 306.661 431.336C349.401 431.349 363.108 432.351 395.998 437.868C467.569 449.873 529.607 477.991 566.704 515.24C580.391 528.982 588.885 540.723 597.153 557.325C608.371 579.85 612.707 598.37 611.904 620.325C611.348 635.513 609.582 641.316 602.647 650.736C582.594 677.976 521.519 697.085 425.161 706.268C384.62 710.132 365.236 710.999 313.161 711.279C284.286 711.434 257.511 711.398 253.661 711.197ZM370.661 682.795C492.897 676.149 571.526 656.952 583.529 630.825C587.338 622.532 585.815 601.832 580.128 584.599C558.712 519.708 475.407 472.641 360.161 460.32C352.186 459.467 334.186 458.495 320.161 458.16C185.65 454.946 72.6883 499.769 38.3946 569.963C28.082 591.072 23.6964 617.642 28.4791 630.036C39.2093 657.845 131.777 678.993 263.959 683.834C290.321 684.799 343.286 684.284 370.661 682.795ZM291.661 402.24C290.011 402.004 283.586 401.114 277.383 400.263C236.105 394.599 193.527 373.22 163.352 343.006C112.787 292.374 92.6192 217.86 110.674 148.372C127.84 82.3009 181.435 27.4912 247.568 8.3733C337.091 -17.5063 431.743 18.0251 479.197 95.3245C505.616 138.36 514.624 193.117 503.738 244.506C499.701 263.568 489.322 288.986 478.406 306.545C455.417 343.525 418.817 373.684 378.161 389.147C355.703 397.689 334.959 401.73 310.661 402.297C301.861 402.502 293.311 402.477 291.661 402.24ZM321.608 374.785C375.028 369.719 422.936 341.424 452.189 297.661C482.71 252 490.075 198.227 473.048 145.347C469.052 132.936 457.504 110.161 449.712 99.3245C425.365 65.4647 390.798 42.051 350.661 32.2337C285.133 16.2062 215.268 37.4266 173.571 86.022C119.282 149.292 115.85 235.208 164.857 304.111C172.706 315.146 191.586 333.838 203.173 342.045C227.721 359.432 259.924 371.598 289.661 374.719C301.288 375.939 309.26 375.956 321.608 374.785ZM582.7 240.888C582.382 240.374 580.823 233.286 579.235 225.138C574.847 202.622 571.911 195.445 564.261 188.534C557.091 182.056 548.555 178.874 528.828 175.327C522.368 174.165 518.803 173.055 518.433 172.091C517.608 169.942 519.429 169.191 530.077 167.289C549.08 163.894 559.264 159.691 565.88 152.513C573.012 144.776 575.214 138.892 579.593 115.879C583.447 95.6245 585.167 95.6457 588.73 115.992C592.824 139.372 596.439 148.378 604.615 155.575C610.312 160.59 617.269 163.235 633.068 166.395C648.786 169.539 649.161 169.655 649.161 171.353C649.161 172.905 645.788 173.932 633.049 176.262C602.784 181.798 595.43 190.097 589.134 225.82C588.019 232.147 586.678 238.337 586.155 239.575C585.161 241.925 583.687 242.485 582.7 240.888Z" fill="currentColor"/>
</svg>
