<svg xmlns="http://www.w3.org/2000/svg" width="692.582" height="620.981"><path d="M186.49 681.43c-27.65-5.943-52.572-22.525-67.282-44.763-5.89-8.905-12.063-24.739-13.786-35.36-1.852-11.412-1.887-231.671-.04-244.64 2.914-20.447 11.642-39.575 24.434-53.546 4.501-4.916 16.849-16.179 27.44-25.03 10.59-8.85 25.34-21.191 32.778-27.424 7.438-6.234 31.173-26.084 52.745-44.112 49.032-40.977 78.353-65.713 106.646-89.969 43.4-37.207 56.872-46.213 76.721-51.29 5.654-1.446 13.389-2.63 17.187-2.63 16.553 0 38.87 9.056 58 23.535 10.617 8.035 50.317 41.073 90 74.897 13.2 11.25 36.9 31.33 52.667 44.62 15.767 13.291 35.02 29.591 42.784 36.224 7.764 6.632 23.964 20.433 36 30.67 42.62 36.247 48.329 41.416 55.244 50.023 30.212 37.6 22.927 79.274-17.257 98.724l-11.25 5.445-.584 94.931c-.413 67.1-1.055 97.082-2.19 102.265-4.589 20.947-18.44 38.715-38.115 48.891-18.403 9.518-25.245 10.442-77.299 10.442-39.253 0-46.729-.327-55.739-2.44-24.167-5.668-40.1-17.006-49.406-35.159-6.102-11.904-6.607-17.089-7.497-77.067-.81-54.566-.995-57.77-3.837-66.376-15.254-46.18-62.816-66.946-105.52-46.072-9.862 4.82-24.861 18.465-30.07 27.353-5.523 9.424-9.861 22.486-10.663 32.102-.412 4.946-1.25 31.793-1.861 59.66-1.007 45.922-1.373 51.487-3.906 59.429-7.117 22.315-24.818 38.993-48.834 46.01-6.926 2.024-15.252 2.391-62 2.735-48.526.357-55.167.147-65.51-2.077zm123.284-30.696c10.339-4.237 19.736-12.86 23.644-21.695 3.051-6.896 3.133-8.2 4.043-64.372.997-61.576 1.349-64.91 8.68-82.341 7.597-18.064 19.72-33.546 34.27-43.766 18.033-12.665 39.256-18.874 64.256-18.798 39.939.12 74.032 21.693 91.935 58.173 10.265 20.915 10.29 21.1 11.451 84.732.569 31.166 1.614 58.86 2.322 61.542 3.45 13.06 11.62 21.349 26.292 26.672 7.383 2.679 11.102 2.949 48.241 3.497 27.571.407 43.105.097 49.334-.986 20.697-3.598 36.523-16.091 41.727-32.94 2.603-8.428 2.698-12.13 2.698-105.969 0-79.107.339-98.047 1.818-101.588 2.593-6.206 8.544-10.694 20.847-15.725 12.835-5.247 19.485-10.42 22.81-17.742 4.781-10.525 2.033-22.773-8.13-36.233-3.03-4.015-17.268-17.326-31.637-29.58-14.369-12.255-38.782-33.083-54.25-46.285-116.897-99.768-179.76-152.663-188.799-158.864-16.977-11.647-34.44-17.323-45.892-14.916-14.468 3.04-22.302 8.18-55.64 36.504-25.782 21.905-39.296 33.286-87.127 73.374-21.267 17.824-43.467 36.462-49.334 41.418-24.459 20.66-46.68 39.31-68.415 57.419-29.844 24.866-37.165 35.705-40.275 59.624-1.708 13.146-1.653 221.778.062 232.778 4.406 28.253 32.053 53.953 63.165 58.714 3.738.572 28.697.928 55.463.79 47.973-.247 48.778-.296 56.441-3.437z" fill="currentColor" transform="translate(-104.015 -62.667)"/></svg>