<svg width="447" height="349" viewBox="0 0 447 349" fill="currentColor" xmlns="http://www.w3.org/2000/svg">
<path d="M238.712 348.707C234.683 348.212 227.869 346.667 225.408 345.69C219.941 343.52 216.469 341.689 212.752 339.014C199.983 329.823 190.81 315.472 186.469 297.893C184.623 290.415 183.88 284.403 183.718 275.616C183.591 268.786 183.786 264.918 184.542 259.249C187.187 239.418 196.273 221.434 209.149 210.544C220.87 200.632 234.923 196.145 251.151 197.134C262.305 197.814 271.305 200.24 281.329 205.267L286.088 207.654L286.236 208.952C286.317 209.666 286.489 212.1 286.617 214.361C286.745 216.621 286.991 220.661 287.165 223.338C287.339 226.015 287.629 230.591 287.811 233.506C287.993 236.421 288.205 239.655 288.282 240.694C288.43 242.704 288.259 243.241 287.473 243.241C286.754 243.241 286.736 243.197 282.592 231.126C281.957 229.278 280.181 224.935 279.226 222.896C274.749 213.34 267.239 206.344 258.216 203.324C255.045 202.263 253.021 201.91 249.294 201.769C243.855 201.563 239.444 202.556 234.169 205.173C227.758 208.354 222.707 212.989 217.962 220.047C210.515 231.123 206.061 245.02 204.6 261.737C204.243 265.829 204.243 279.473 204.602 283.586C205.736 296.62 208.582 307.758 213.277 317.55C219.266 330.038 226.767 337.903 236.549 341.953C240.901 343.755 246.078 344.531 250.666 344.068C258.855 343.242 266.121 339.568 272.352 333.103C275.043 330.312 276.171 328.878 278.307 325.539C280.956 321.395 283.46 316.141 285.855 309.704C287.44 305.442 287.929 304.7 288.718 305.355C289.111 305.681 289.102 306.065 288.471 315.928C288.292 318.724 287.998 323.348 287.817 326.203C287.205 335.853 287.104 337.079 286.885 337.489C286.512 338.185 280.024 341.586 275.205 343.611C266.282 347.36 256.993 349.059 245.743 348.998C243.066 348.984 239.902 348.853 238.713 348.707H238.712ZM125.787 348.251C110.271 345.858 98.2641 336.306 92.9922 322.164C91.7049 318.711 90.8789 315.064 90.3303 310.411C90.148 308.865 89.9369 307.161 89.8613 306.626C89.7857 306.09 89.6537 284.868 89.5679 259.466C89.4274 217.881 89.3768 213.139 89.0602 211.873C87.8138 206.889 85.7996 203.655 82.7369 201.721C81.9736 201.239 81.2438 200.648 81.1152 200.407C80.915 200.033 80.9625 199.94 81.445 199.756C82.1474 199.489 115.491 199.467 115.912 199.733C116.471 200.088 116.042 200.719 114.753 201.44C113.121 202.354 112.054 203.379 110.876 205.167C109.589 207.12 108.878 208.731 108.375 210.832C107.952 212.597 107.945 213.472 107.94 258.708C107.935 303.029 107.951 304.915 108.355 308.14C109.129 314.33 110.351 318.781 112.483 323.175C116.79 332.051 123.322 337.535 131.736 339.336C134.6 339.949 139.822 339.948 142.886 339.336C155.299 336.851 162.671 328.65 165.58 314.09C166.907 307.451 166.868 309.059 166.811 263.144C166.754 217.069 166.737 216.485 165.38 211.802C164.095 207.365 162.148 204.8 157.912 201.959C156.429 200.965 156.074 200.623 156.074 200.189V199.651L169.631 199.595C181.743 199.545 183.225 199.576 183.531 199.881C184.131 200.481 183.908 200.799 182.304 201.63C179.544 203.061 175.962 207.107 174.578 210.359C173.704 212.412 173.264 214.063 172.906 216.633C172.603 218.814 172.541 224.452 172.408 262.387C172.243 309.459 172.262 308.767 170.999 315.597C168.422 329.529 161.457 339.614 150.904 344.694C147.252 346.452 143.771 347.488 139.238 348.166C135.79 348.681 128.856 348.726 125.787 348.252V348.251ZM1.77587 346.689C0.846998 346.636 0.640137 346.553 0.640137 346.231C0.640137 346.016 1.01296 345.592 1.46863 345.291C7.3404 341.405 9.69344 336.359 10.3688 326.203C10.5028 324.19 10.5859 302.89 10.588 270.057C10.5916 212.462 10.6255 214.141 9.38653 210.392C8.73942 208.434 7.39575 205.939 6.04632 204.19C5.24875 203.157 3.76199 202 1.96107 201.012C1.14464 200.564 1.09567 200.037 1.84404 199.753C2.48007 199.511 36.9823 199.494 37.849 199.736C38.7918 199.998 38.5007 200.607 36.9029 201.717C33.1126 204.348 30.7748 207.906 29.7871 212.545L29.3083 214.793L29.3407 272.878C29.3627 312.362 29.4463 331.482 29.6018 332.585C30.2472 337.164 31.8293 339.02 35.9969 340.089C38.093 340.627 45.1859 340.618 48.341 340.073C55.7588 338.792 62.2009 335.728 66.3603 331.504C70.6997 327.096 74.6854 319.017 77.1392 309.654C78.0854 306.044 78.6229 305.3 79.1961 306.807C79.3429 307.193 79.338 308.684 79.181 311.383C78.8065 317.824 78.3079 325.767 78.0878 328.799C77.9755 330.346 77.7208 334.776 77.5218 338.642C77.3227 342.509 77.0787 345.892 76.9795 346.16L76.7992 346.647L51.1046 346.701C17.1163 346.772 3.15611 346.769 1.77587 346.689ZM311.377 346.701C293.926 346.646 293.389 346.632 293.022 346.226C292.814 345.997 292.703 345.713 292.776 345.595C292.848 345.478 293.856 345.077 295.014 344.704C296.173 344.331 297.581 343.731 298.143 343.371C300.689 341.738 302.83 338.429 303.698 334.788C304.586 331.062 304.617 328.682 304.532 271.039C304.47 228.929 304.388 215.476 304.186 214.189C303.851 212.057 302.615 208.261 301.785 206.815C300.506 204.586 298.549 202.987 295.782 201.911C294.853 201.549 293.873 201.162 293.606 201.051C293.07 200.829 292.944 200.02 293.379 199.585C293.577 199.387 298.286 199.326 313.254 199.326C324.043 199.326 333.175 199.387 333.549 199.461C334.024 199.557 334.266 199.752 334.357 200.113C334.531 200.806 334.172 201.183 332.948 201.589C330.969 202.246 328.402 204.184 326.92 206.14C325.147 208.479 324.065 211.358 323.63 214.896C323.48 216.124 323.406 235.444 323.406 273.413C323.408 334.013 323.37 331.746 324.413 335.397C325.412 338.891 327.545 341.968 330.199 343.741C330.567 343.987 331.516 344.46 332.308 344.792C333.361 345.234 333.772 345.523 333.838 345.867C334.017 346.805 333.869 346.866 331.554 346.81C330.344 346.781 321.265 346.732 311.377 346.701ZM341.847 346.621C341.36 346.121 341.556 345.85 343.254 344.677C345.491 343.131 346.406 342.278 347.55 340.675C349.422 338.052 350.465 334.98 350.872 330.886C351.011 329.496 351.096 319.535 351.096 304.638V280.63L351.636 281.026C352.495 281.658 354.018 283.838 355.001 285.846C357.499 290.946 358.909 297.011 359.531 305.328C359.66 307.053 359.826 309 359.899 309.654C360.03 310.816 360.037 310.826 360.195 310.087C360.285 309.67 360.469 307.821 360.605 305.977C361.499 293.852 364.451 285.159 368.886 281.588L370.024 280.671L370.079 310.719L370.134 340.767L372.009 340.923C374.712 341.148 383.281 340.89 385.826 340.507C391.295 339.684 395.535 338.385 399.762 336.239C413.136 329.449 421.403 314.78 424.742 291.915C425.618 285.915 425.823 282.435 425.83 273.419C425.839 262.532 425.389 257.158 423.801 249.19C419.232 226.263 407.518 211.796 389.74 207.122C383.989 205.61 375.183 204.749 371.136 205.304L370.133 205.442V236.247C370.133 265.722 370.116 267.043 369.747 266.846C369.535 266.733 368.851 266.137 368.226 265.521C365.291 262.633 363.42 259.017 362.145 253.769C361.337 250.442 360.931 247.533 360.496 241.945C360.306 239.508 360.115 237.478 360.072 237.435C359.928 237.291 359.759 238.763 359.528 242.159C358.754 253.541 356.409 261.012 352.132 265.725L351.113 266.848L351.031 240.604C350.942 212.109 350.978 212.974 349.727 209.256C348.634 206.009 346.651 203.387 343.934 201.597C342.093 200.384 342.021 199.937 343.635 199.723C345.338 199.497 375.808 199.529 380.795 199.762C391.941 200.283 401.679 202.315 408.802 205.607C409.307 205.841 410.184 206.245 410.749 206.505C416.017 208.931 421.637 212.826 426.114 217.155C436.784 227.471 443.383 241.306 445.837 258.502C446.58 263.709 446.801 267.165 446.797 273.527C446.793 281.768 446.344 286.638 444.952 293.538C441.998 308.179 436.372 319.454 427.48 328.553C422.84 333.299 418.218 336.676 412.34 339.613C404.985 343.287 398.462 345.084 387.872 346.354C383.904 346.83 342.287 347.071 341.847 346.621ZM257.775 309.33C257.582 306.335 256.907 300.312 256.428 297.323C254.839 287.392 251.597 281.63 245.743 278.329C242.59 276.552 237.834 275.07 232.769 274.286C231.523 274.093 230.472 273.904 230.433 273.866C230.395 273.827 231.171 273.682 232.158 273.543C240.794 272.328 247.255 269.433 250.73 265.221C254.615 260.514 256.857 252.258 257.663 239.697C257.794 237.66 257.93 235.962 257.967 235.924C258.004 235.885 258.086 236.566 258.15 237.438C259.166 251.26 260.129 256.405 262.66 261.514C263.984 264.187 265.669 266.198 268.133 268.046C271.263 270.394 277.833 272.71 283.168 273.346C285.42 273.614 286.426 273.942 285.031 273.953C283.526 273.965 279.096 274.821 276.557 275.591C269.944 277.595 265.67 280.841 262.968 285.911C260.805 289.971 259.195 297.016 258.508 305.436C258.372 307.102 258.189 309.243 258.102 310.195L257.942 311.926L257.775 309.33ZM349.135 278.832C344.77 276.419 339.505 274.94 332.816 274.25C331.983 274.164 331.545 274.061 331.842 274.02C333.513 273.794 337.982 273.015 339.15 272.746C342.722 271.923 347.586 269.994 349.722 268.552C350.268 268.184 350.753 267.921 350.8 267.968C350.848 268.015 350.86 270.683 350.829 273.895L350.771 279.737L349.135 278.832ZM370.133 273.638V267.878L371.052 268.449C374.654 270.688 380.416 272.56 386.357 273.422C387.726 273.621 388.865 273.802 388.889 273.825C388.913 273.848 387.551 274.04 385.861 274.251C382.617 274.655 378.396 275.592 376.406 276.349C375.752 276.598 374.869 276.931 374.444 277.088C373.401 277.475 371.457 278.463 370.728 278.978L370.133 279.397V273.638Z" fill="white"/>
<path d="M240.126 123.051C246.741 121.751 253.734 119.075 259.427 115.666C266.145 111.644 273.805 104.47 277.881 98.3817C279.999 95.2192 284 87.7492 284 86.9583C284 86.7607 282.752 87.9051 281.227 89.5015C270.988 100.221 257.432 105.671 242.498 105.074C217.662 104.08 197.37 85.7004 193.142 60.3685C192.524 56.6674 192.605 48.398 193.3 44.2413C194.012 39.9799 196.137 33.3781 197.973 29.7241C202.646 20.4273 210.487 12.0984 219.662 6.6871L221.211 5.77353L218.782 6.00679C215.398 6.3319 209.615 7.69417 206.006 9.01637C198.37 11.814 191.757 16.1025 185.598 22.2504C177.681 30.154 172.669 39.2901 170.007 50.6742C169.063 54.7115 169.004 55.4445 169 63.1825C168.996 70.3508 169.097 71.8647 169.788 75.0165C173.942 93.9727 185.89 109.597 202.637 117.972C207.909 120.609 215.831 122.992 221.83 123.746C226.127 124.286 235.69 123.923 240.126 123.051ZM275.673 68.08C276.468 63.8101 277.828 62.1297 281.301 61.1272L283.074 60.6151L281.009 59.9664C277.544 58.8775 276.58 57.7632 275.757 53.8906C275.187 51.2138 274.854 50.8032 274.553 52.4064C273.637 57.2846 272.382 59.1477 269.437 60.0029L267.458 60.5775L269.558 61.4213C272.385 62.5578 273.383 63.824 274.208 67.3163C274.576 68.8749 274.969 70.1504 275.082 70.1507C275.195 70.1511 275.461 69.2194 275.673 68.08ZM234.753 49.8908C235.564 48.3326 236.837 47.3298 238.949 46.5843C240.493 46.0396 240.743 45.8513 240.173 45.6612C235.403 44.0687 234.918 43.5326 233.554 38.3445L232.943 36.0215L232.513 37.6297C231.104 42.9033 230.091 44.3256 227.021 45.3445L225.255 45.9303L227.347 46.7741C230.105 47.8855 230.864 48.8419 232.031 52.6694L233.006 55.8683L233.618 53.3813C233.955 52.0133 234.465 50.4426 234.753 49.8908ZM262.548 26.3375C264.071 21.7496 266.73 19.7074 272.986 18.3193C275.279 17.8107 275.379 17.4591 273.324 17.1311C268.047 16.288 264.425 13.9503 262.896 10.3996C262.024 8.37491 260.772 2.85083 260.725 0.819547C260.683 -1.02056 260.237 0.274347 259.514 4.338C258.739 8.69694 257.735 11.3067 256.165 13.0431C254.561 14.8161 252.959 15.6332 249.02 16.6881L245.897 17.5244L247.507 17.9424C252.77 19.3087 255.515 21.0972 257.234 24.2797C258.068 25.823 259.513 30.9598 260.236 34.9494C260.474 36.2624 260.549 36.0583 261.16 32.4478C261.525 30.2856 262.15 27.536 262.548 26.3375Z" fill="currentColor"/>
</svg>
