<svg width="322" height="347" viewBox="0 0 322 347" fill="currentColor" xmlns="http://www.w3.org/2000/svg">
<path d="M199.37 344.314C217.858 340.676 237.404 333.189 253.317 323.65C272.095 312.394 293.503 292.321 304.898 275.285C310.817 266.436 322 245.534 322 243.321C322 242.768 318.513 245.97 314.25 250.437C285.63 280.431 247.741 295.682 206 294.01C136.58 291.23 79.8627 239.801 68.0447 168.919C66.3179 158.563 66.5439 135.424 68.4854 123.793C70.4759 111.869 76.4169 93.3963 81.5495 83.1719C94.6081 57.1582 116.525 33.853 142.171 18.7114L146.5 16.1551L139.712 16.8078C130.252 17.7175 114.087 21.5293 104 25.229C82.6575 33.057 64.173 45.057 46.9592 62.2596C24.8296 84.3749 10.8226 109.939 3.38191 141.793C0.743097 153.09 0.578146 155.141 0.566686 176.793C0.556103 196.851 0.837721 201.087 2.76829 209.906C14.3801 262.948 47.7761 306.667 94.5847 330.102C109.321 337.479 131.463 344.148 148.23 346.258C160.242 347.769 186.971 346.753 199.37 344.314ZM298.725 190.497C300.947 178.549 304.749 173.847 314.457 171.042L319.413 169.609L313.641 167.794C303.954 164.747 301.261 161.629 298.959 150.793C297.367 143.303 296.436 142.154 295.595 146.64C293.034 160.29 289.528 165.503 281.296 167.896L275.765 169.504L281.633 171.865C289.534 175.045 292.326 178.588 294.63 188.36C295.659 192.721 296.758 196.29 297.074 196.291C297.389 196.292 298.132 193.685 298.725 190.497ZM184.35 139.601C186.618 135.241 190.175 132.435 196.08 130.349C200.396 128.825 201.093 128.298 199.5 127.766C186.167 123.31 184.811 121.81 180.999 107.293L179.293 100.793L178.091 105.293C174.152 120.049 171.321 124.029 162.739 126.88L157.804 128.519L163.652 130.88C171.359 133.99 173.482 136.666 176.743 147.376L179.468 156.327L181.179 149.368C182.12 145.54 183.547 141.145 184.35 139.601ZM262.04 73.6958C266.297 60.8582 273.728 55.1439 291.216 51.2598C297.623 49.8367 297.903 48.853 292.161 47.935C277.409 45.576 267.286 39.0347 263.012 29.0996C260.575 23.4341 257.077 7.97701 256.946 2.2932C256.827 -2.85566 255.581 0.767658 253.561 12.1383C251.394 24.3352 248.587 31.6377 244.198 36.4964C239.716 41.4575 235.239 43.7438 224.229 46.6955L215.5 49.0356L220 50.2052C234.71 54.0283 242.383 59.0328 247.187 67.9378C249.517 72.2561 253.556 86.6297 255.577 97.7932C256.243 101.467 256.453 100.896 258.16 90.7932C259.182 84.7432 260.928 77.0494 262.04 73.6958Z" fill="currentColor"/>
</svg>
