<svg width="2750" height="937" viewBox="0 0 2750 937" fill="currentColor" xmlns="http://www.w3.org/2000/svg">
<path d="M1467.33 935.031C1442.5 931.981 1400.5 922.458 1385.33 916.438C1351.64 903.065 1330.24 891.775 1307.33 875.288C1228.63 818.644 1172.09 730.191 1145.34 621.844C1133.96 575.757 1129.38 538.701 1128.38 484.542C1127.6 442.444 1128.8 418.606 1133.46 383.667C1149.77 261.441 1205.77 150.597 1285.13 83.4783C1357.36 22.3841 1443.98 -5.27142 1544 0.826463C1612.75 5.01783 1668.22 19.9681 1730 50.9549L1759.33 65.6671L1760.24 73.6671C1760.74 78.0671 1761.8 93.0671 1762.59 107C1763.38 120.934 1764.9 145.834 1765.97 162.334C1767.04 178.834 1768.83 207.034 1769.95 225C1771.08 242.967 1772.38 262.903 1772.85 269.303C1773.77 281.69 1772.72 285 1767.87 285C1763.44 285 1763.33 284.729 1737.78 210.334C1733.87 198.945 1722.92 172.175 1717.04 159.607C1689.45 100.709 1643.16 57.5881 1587.55 38.9797C1568 32.4394 1555.52 30.2647 1532.55 29.3944C1499.03 28.1244 1471.85 34.243 1439.33 50.3737C1399.82 69.9777 1368.69 98.5488 1339.44 142.051C1293.55 210.315 1266.1 295.97 1257.09 399C1254.89 424.222 1254.89 508.317 1257.1 533.667C1264.09 613.996 1281.63 682.65 1310.57 743C1347.48 819.969 1393.71 868.445 1454 893.407C1480.83 904.512 1512.74 909.291 1541.01 906.439C1591.48 901.347 1636.27 878.705 1674.67 838.86C1691.26 821.658 1698.21 812.82 1711.37 792.236C1727.7 766.7 1743.14 734.315 1757.89 694.64C1767.66 668.375 1770.68 663.798 1775.54 667.839C1777.96 669.844 1777.91 672.214 1774.02 733C1772.92 750.234 1771.1 778.734 1769.99 796.334C1766.22 855.806 1765.59 863.365 1764.24 865.89C1761.95 870.183 1721.96 891.143 1692.25 903.624C1637.26 926.732 1580.01 937.201 1510.67 936.829C1494.17 936.741 1474.67 935.931 1467.34 935.031H1467.33ZM771.333 932.224C675.702 917.47 601.697 858.602 569.204 771.438C561.269 750.153 556.179 727.677 552.797 699C551.673 689.467 550.372 678.967 549.907 675.667C549.441 672.367 548.627 541.567 548.098 385C547.232 128.695 546.92 99.4703 544.969 91.6671C537.287 60.95 524.872 41.0183 505.996 29.0968C501.291 26.1254 496.793 22.4825 496 21.0014C494.767 18.6965 495.06 18.1183 498.033 16.9878C502.363 15.3417 707.874 15.2057 710.465 16.8473C713.91 19.0307 711.269 22.9222 703.325 27.3675C693.263 32.9984 686.69 39.3152 679.429 50.3338C671.497 62.3713 667.112 72.303 664.013 85.2532C661.41 96.1312 661.361 101.526 661.332 380.334C661.303 653.502 661.4 665.122 663.888 685C668.663 723.153 676.196 750.584 689.335 777.667C715.879 832.377 756.141 866.172 808 877.273C825.649 881.051 857.834 881.049 876.719 877.273C953.226 861.957 998.664 811.411 1016.59 721.672C1024.77 680.756 1024.53 690.668 1024.18 407.672C1023.83 123.694 1023.73 120.095 1015.36 91.2335C1007.44 63.8851 995.441 48.0745 969.333 30.5671C960.189 24.4351 958 22.3271 958 19.6529V16.3387L1041.56 15.9953C1116.21 15.6886 1125.35 15.8765 1127.23 17.7572C1130.93 21.4556 1129.55 23.4123 1119.67 28.5368C1102.66 37.3536 1080.58 62.2941 1072.05 82.3387C1066.66 94.9932 1063.95 105.166 1061.75 121.005C1059.87 134.449 1059.5 169.197 1058.68 403.005C1057.66 693.132 1057.77 688.869 1049.99 730.961C1034.11 816.828 991.18 878.989 926.141 910.299C903.63 921.136 882.173 927.521 854.238 931.695C832.984 934.872 790.245 935.147 771.333 932.229V932.224ZM7 922.597C1.27497 922.268 0 921.754 0 919.775C0 918.444 2.29785 915.834 5.10634 913.976C41.2965 890.026 55.7992 858.924 59.9619 796.334C60.7875 783.921 61.2999 652.641 61.3127 450.283C61.3352 95.296 61.5436 105.646 53.9076 82.5422C49.9192 70.4744 41.6376 55.0977 33.3205 44.3172C28.4048 37.9454 19.2413 30.8167 8.14143 24.7291C3.10948 21.9694 2.80761 18.7211 7.42013 16.9675C11.3403 15.477 223.991 15.3741 229.333 16.8601C235.144 18.4765 233.35 22.2337 223.502 29.0713C200.141 45.2918 185.732 67.2166 179.645 95.8077L176.694 109.667L176.893 467.667C177.029 711.024 177.544 828.869 178.502 835.667C182.481 863.887 192.231 875.329 217.918 881.918C230.837 885.233 274.554 885.174 294 881.816C339.719 873.922 379.424 855.04 405.06 829C431.806 801.834 456.371 752.038 471.495 694.334C477.327 672.081 480.64 667.496 484.173 676.788C485.077 679.167 485.047 688.354 484.079 704.992C481.771 744.69 478.698 793.642 477.342 812.334C476.65 821.867 475.08 849.167 473.853 873C472.626 896.834 471.122 917.684 470.511 919.334L469.399 922.334L311.033 922.667C101.549 923.107 15.507 923.087 7 922.597ZM1915.2 922.667C1807.64 922.329 1804.33 922.243 1802.07 919.744C1800.79 918.327 1800.1 916.577 1800.55 915.853C1801 915.13 1807.21 912.657 1814.35 910.359C1821.49 908.06 1830.17 904.363 1833.63 902.141C1849.32 892.077 1862.52 871.687 1867.87 849.241C1873.34 826.282 1873.53 811.613 1873.01 456.334C1872.63 196.789 1872.12 113.874 1870.88 105.94C1868.81 92.8044 1861.2 69.4075 1856.08 60.4944C1848.19 46.7561 1836.13 36.9003 1819.08 30.2663C1813.35 28.0372 1807.32 25.6533 1805.67 24.9689C1802.36 23.5982 1801.59 18.6111 1804.27 15.9339C1805.49 14.713 1834.51 14.334 1926.77 14.334C1993.26 14.334 2049.55 14.7105 2051.85 15.1708C2054.78 15.7569 2056.27 16.9604 2056.83 19.1881C2057.91 23.4607 2055.69 25.7791 2048.15 28.2843C2035.95 32.335 2020.13 44.2796 2010.99 56.334C2000.07 70.7498 1993.4 88.4943 1990.72 110.299C1989.79 117.867 1989.34 236.944 1989.34 470.966C1989.35 844.468 1989.12 830.493 1995.55 853C2001.7 874.532 2014.85 893.495 2031.2 904.426C2033.48 905.944 2039.33 908.859 2044.21 910.905C2050.7 913.626 2053.23 915.406 2053.63 917.53C2054.74 923.308 2053.83 923.684 2039.56 923.342C2032.1 923.163 1976.14 922.859 1915.2 922.667ZM2103 922.175C2099.99 919.096 2101.21 917.422 2111.67 910.193C2125.46 900.663 2131.1 895.409 2138.15 885.53C2149.69 869.359 2156.11 850.427 2158.62 825.193C2159.48 816.625 2160 755.233 2160 663.415V515.445L2163.33 517.889C2168.63 521.78 2178.01 535.219 2184.07 547.594C2199.47 579.026 2208.16 616.411 2211.99 667.667C2212.79 678.301 2213.81 690.301 2214.26 694.334C2215.07 701.494 2215.11 701.557 2216.09 697.001C2216.64 694.434 2217.77 683.034 2218.61 671.667C2224.12 596.938 2242.31 543.36 2269.65 521.348L2276.67 515.696L2277 700.896L2277.34 886.095L2288.9 887.058C2305.56 888.446 2358.37 886.855 2374.06 884.493C2407.77 879.417 2433.9 871.414 2459.95 858.186C2542.38 816.338 2593.34 725.924 2613.91 585.001C2619.31 548.017 2620.58 526.572 2620.62 471.001C2620.68 403.901 2617.9 370.777 2608.12 321.667C2579.95 180.359 2507.76 91.193 2398.18 62.3845C2362.73 53.0655 2308.46 47.7631 2283.52 51.1819L2277.33 52.0298V241.895C2277.33 423.56 2277.23 431.706 2274.96 430.49C2273.65 429.791 2269.43 426.117 2265.58 422.325C2247.49 404.52 2235.96 382.237 2228.1 349.889C2223.12 329.388 2220.62 311.458 2217.94 277.017C2216.77 261.993 2215.59 249.482 2215.32 249.214C2214.44 248.33 2213.4 257.404 2211.97 278.334C2207.2 348.484 2192.75 394.535 2166.39 423.582L2160.11 430.5L2159.6 268.75C2159.05 93.1204 2159.28 98.4525 2151.56 75.5388C2144.83 55.5292 2132.61 39.366 2115.86 28.333C2104.51 20.8574 2104.07 18.1044 2114.02 16.7841C2124.51 15.3899 2312.31 15.5847 2343.05 17.0216C2411.75 20.2332 2471.76 32.7594 2515.67 53.0485C2518.78 54.4888 2524.18 56.9798 2527.67 58.5839C2560.14 73.537 2594.77 97.5448 2622.37 124.223C2688.13 187.805 2728.81 273.077 2743.93 379.065C2748.51 411.154 2749.87 432.456 2749.85 471.667C2749.82 522.457 2747.06 552.475 2738.48 595.001C2720.27 685.243 2685.59 754.732 2630.79 810.812C2602.19 840.069 2573.7 860.883 2537.47 878.98C2492.14 901.625 2451.94 912.702 2386.67 920.533C2362.21 923.466 2105.71 924.951 2103 922.175ZM1584.83 692.334C1583.64 673.875 1579.48 636.757 1576.53 618.334C1566.73 557.121 1546.75 521.61 1510.67 501.266C1491.23 490.31 1461.92 481.174 1430.7 476.344C1423.02 475.156 1416.55 473.991 1416.31 473.755C1416.07 473.518 1420.86 472.624 1426.94 471.768C1480.17 464.275 1519.99 446.433 1541.41 420.472C1565.35 391.463 1579.17 340.576 1584.14 263.158C1584.94 250.605 1585.79 240.139 1586.01 239.901C1586.24 239.664 1586.74 243.864 1587.14 249.235C1593.4 334.427 1599.34 366.135 1614.94 397.624C1623.1 414.098 1633.48 426.493 1648.67 437.885C1667.96 452.357 1708.45 466.632 1741.33 470.55C1755.22 472.204 1761.42 474.226 1752.81 474.293C1743.54 474.366 1716.24 479.642 1700.59 484.386C1659.83 496.74 1633.49 516.744 1616.84 547.994C1603.5 573.017 1593.58 616.44 1589.35 668.334C1588.51 678.601 1587.38 691.801 1586.84 697.667L1585.86 708.334L1584.83 692.334ZM2147.91 504.366C2121.01 489.491 2088.56 480.379 2047.33 476.123C2042.2 475.593 2039.5 474.957 2041.33 474.709C2051.63 473.314 2079.18 468.51 2086.38 466.852C2108.39 461.781 2138.37 449.891 2151.53 441.006C2154.9 438.734 2157.89 437.113 2158.18 437.404C2158.47 437.695 2158.55 454.135 2158.36 473.938L2158 509.943L2147.91 504.366ZM2277.33 472.349V436.849L2283 440.371C2305.2 454.168 2340.71 465.706 2377.33 471.021C2385.77 472.244 2392.79 473.363 2392.94 473.505C2393.09 473.648 2384.69 474.828 2374.27 476.127C2354.28 478.621 2328.26 484.395 2316 489.061C2311.97 490.596 2306.52 492.646 2303.91 493.616C2297.48 495.998 2285.5 502.089 2281 505.262L2277.33 507.849V472.349Z" fill="currentColor"/>
</svg>
