<?xml version="1.0" encoding="UTF-8" standalone="no"?>
<!-- Created with Inkscape (http://www.inkscape.org/) -->

<svg
   version="1.1"
   id="svg1"
   width="698.81262"
   height="625.03693"
   viewBox="0 0 698.81262 625.03692"
   xmlns="http://www.w3.org/2000/svg"
   xmlns:svg="http://www.w3.org/2000/svg">
  <defs
     id="defs1" />
  <g
     id="g1"
     transform="translate(-117.1874,-52.144119)">
    <path
       style="fill="currentColor"
       d="m 283.33333,675.81391 c -28.54027,-2.03373 -58.96246,-8.72061 -77.1096,-16.94892 -29.02834,-13.16208 -54.98837,-38.95953 -70.15113,-69.71178 -12.17091,-24.68438 -14.97131,-35.61914 -17.53939,-68.48656 -1.88722,-24.15337 -1.75105,-282.83126 0.16634,-315.99999 2.01543,-34.86479 6.91557,-55.91723 18.31035,-78.66666 6.54165,-13.06027 11.37861,-19.83502 22.23689,-31.145527 19.85762,-20.684649 41.20646,-31.994068 74.08654,-39.246903 12.49746,-2.756746 15.3828,-2.800347 215.99999,-3.263984 224.19996,-0.518139 220.0089,-0.646483 253.2821,7.756361 43.23103,10.917605 76.40254,40.928393 94.90329,85.860503 7.37194,17.90398 10.17986,29.8227 13.20186,56.03776 3.62075,31.4091 3.51145,35.62947 -1.05392,40.69372 -6.2541,6.93752 -17.62843,6.67578 -22.3394,-0.51406 -1.46832,-2.24094 -2.93028,-10.99233 -4.63179,-27.72618 -3.52464,-34.66376 -6.69344,-48.01134 -15.54533,-65.47996 -10.02198,-19.77771 -23.99471,-36.01002 -40.36582,-46.89351 -11.81821,-7.856734 -21.70334,-12.203985 -37.45099,-16.470081 -12.33276,-3.340988 -14.07262,-3.451349 -66,-4.18646 -29.33333,-0.415258 -126.23333,-0.450592 -215.33333,-0.07852 l -162,0.676494 -13.33333,3.631288 c -7.33333,1.997209 -19.03333,6.425228 -26,9.840042 -27.95018,13.700197 -49.90904,44.890527 -55.82584,79.294967 -3.19718,18.59057 -4.18065,51.18358 -5.00536,165.88071 -1.1387,158.36568 0.36214,193.81018 9.32173,220.1468 6.80352,19.99888 14.35511,31.65063 31.44609,48.51986 26.19762,25.8577 49.88532,34.39404 103.39671,37.26109 36.67879,1.96519 332.35163,2.02264 358,0.0696 48.69749,-3.70822 80.94388,-16.36976 104.01434,-40.84118 20.20224,-21.42902 27.84409,-41.06759 32.09873,-82.48947 1.03694,-10.09535 1.93439,-51.09971 2.43185,-111.11069 l 0.78841,-95.11069 4.35436,-3.88931 c 5.88384,-5.25542 14.26848,-5.4369 20.21,-0.43745 l 4.1023,3.45186 v 77.686 c 0,85.23443 -1.36595,122.68383 -5.47401,150.07694 -7.00783,46.72918 -25.4249,77.96048 -59.68418,101.21128 -17.25628,11.71134 -42.39861,21.90428 -64.32987,26.07992 -30.13967,5.7385 -41.60071,6.04531 -218.51193,5.84952 -92.76667,-0.10266 -175.86666,-0.69972 -184.66666,-1.32679 z M 241.60967,487.10882 c -2.41467,-1.19008 -5.02467,-3.34908 -5.8,-4.79778 -2.07674,-3.88043 -1.71509,-11.23936 0.73621,-14.98052 5.10671,-7.79382 -3.97099,-7.40646 164.48913,-7.01901 144.14559,0.33152 154.65197,0.5095 157.95787,2.67587 7.15313,4.68745 7.21794,18.03122 0.1147,23.61863 -3.44822,2.71237 -4.31558,2.72714 -158.2874,2.69695 -140.09481,-0.0275 -155.23776,-0.23616 -159.21051,-2.19414 z M 299.33333,369.421 c -29.38374,-4.81475 -53.31244,-22.1207 -65.11982,-47.09658 -7.67733,-16.23969 -9.96332,-39.339 -5.57407,-56.32443 6.07428,-23.50607 22.32028,-43.59943 43.53971,-53.85072 15.34219,-7.41194 27.51669,-9.9029 44.48751,-9.10238 32.97237,1.55533 59.82026,18.7531 73.29971,46.9531 5.72129,11.96937 7.80601,22.1987 7.74433,38 -0.11313,28.97919 -12.71677,52.88962 -35.84244,67.99687 -17.35218,11.33563 -42.4287,16.71871 -62.53493,13.42414 z m 29.33333,-29.66453 c 13.83513,-3.4585 28.58613,-16.13538 35.00882,-30.08629 7.32855,-15.91854 5.15819,-39.55961 -4.98522,-54.30255 -14.90822,-21.66836 -43.41084,-30.30465 -68.44631,-20.73922 -10.82909,4.13753 -23.51884,16.21576 -29.22859,27.82008 -4.07351,8.27887 -4.3487,9.72557 -4.3487,22.8615 0,13.0303 0.30418,14.66552 4.29549,23.09215 5.36688,11.33081 17.37293,23.70607 27.49425,28.33977 12.10198,5.54046 25.95207,6.57881 40.21026,3.01456 z m 134.5044,24.99429 c -10.92583,-4.75518 -11.2518,-19.85974 -0.54805,-25.39487 5.82734,-3.01343 151.53923,-3.04138 157.36225,-0.0302 5.54224,2.866 8.01473,7.10475 8.01473,13.74019 0,4.63925 -0.78315,6.58903 -3.89744,9.70332 l -3.89744,3.89744 -76.43589,-0.0522 c -61.38792,-0.0419 -77.25532,-0.40883 -80.59816,-1.86371 z m -1.69098,-94.61144 c -6.79609,-3.76679 -8.71523,-13.004 -4.23,-20.35981 4.41723,-7.24427 6.28685,-7.35063 120.86553,-6.87529 l 103.43694,0.42911 4.04173,4.52375 c 3.64222,4.0766 3.97779,5.18909 3.39495,11.25487 -0.49724,5.17485 -1.47425,7.44289 -4.2257,9.80959 l -3.57892,3.07845 -108.25897,-0.0472 c -87.29908,-0.0381 -108.87593,-0.3892 -111.44556,-1.81343 z"
       id="path1" />
  </g>
</svg>
