<svg xmlns="http://www.w3.org/2000/svg" width="698.813" height="625.037"><path d="M283.333 675.814c-28.54-2.034-58.962-8.72-77.11-16.949-29.028-13.162-54.988-38.96-70.15-69.712-12.171-24.684-14.972-35.619-17.54-68.486-1.887-24.154-1.75-282.832.167-316 2.015-34.865 6.915-55.918 18.31-78.667 6.542-13.06 11.379-19.835 22.237-31.146 19.857-20.684 41.206-31.994 74.086-39.246 12.498-2.757 15.383-2.8 216-3.264 224.2-.519 220.01-.647 253.282 7.756 43.231 10.918 76.403 40.928 94.904 85.86 7.372 17.904 10.18 29.823 13.202 56.038 3.62 31.41 3.511 35.63-1.054 40.694-6.254 6.937-17.629 6.676-22.34-.514-1.468-2.241-2.93-10.992-4.632-27.726-3.524-34.664-6.693-48.012-15.545-65.48-10.022-19.778-23.995-36.01-40.366-46.894-11.818-7.857-21.703-12.204-37.45-16.47-12.333-3.34-14.073-3.451-66-4.186C594 81.006 497.1 80.972 408 81.343l-162 .677-13.333 3.63c-7.334 1.998-19.034 6.426-26 9.841-27.95 13.7-49.91 44.89-55.826 79.295-3.197 18.59-4.18 51.184-5.006 165.88-1.138 158.366.363 193.81 9.322 220.147 6.804 20 14.355 31.651 31.446 48.52 26.198 25.858 49.886 34.394 103.397 37.261 36.679 1.966 332.352 2.023 358 .07 48.697-3.708 80.944-16.37 104.014-40.841 20.203-21.43 27.844-41.068 32.1-82.49 1.036-10.095 1.933-51.1 2.43-111.11l.79-95.111 4.354-3.89c5.884-5.255 14.268-5.436 20.21-.437l4.102 3.452v77.686c0 85.235-1.366 122.684-5.474 150.077-7.008 46.73-25.425 77.96-59.684 101.211-17.256 11.712-42.399 21.905-64.33 26.08-30.14 5.739-41.6 6.046-218.512 5.85-92.767-.103-175.867-.7-184.667-1.327zM241.61 487.109c-2.415-1.19-5.025-3.35-5.8-4.798-2.077-3.88-1.715-11.24.736-14.98 5.107-7.794-3.971-7.407 164.489-7.02 144.146.332 154.652.51 157.958 2.676 7.153 4.688 7.218 18.032.115 23.619-3.449 2.712-4.316 2.727-158.288 2.697-140.095-.028-155.238-.236-159.21-2.194zm57.723-117.688c-29.383-4.815-53.312-22.12-65.12-47.097-7.677-16.24-9.963-39.339-5.574-56.324 6.075-23.506 22.32-43.6 43.54-53.85 15.342-7.413 27.517-9.904 44.488-9.103 32.972 1.555 59.82 18.753 73.3 46.953 5.72 11.97 7.805 22.199 7.744 38-.113 28.98-12.717 52.89-35.843 67.997-17.352 11.335-42.428 16.719-62.535 13.424zm29.334-29.665c13.835-3.458 28.586-16.135 35.008-30.086 7.329-15.918 5.159-39.56-4.985-54.302-14.908-21.669-43.41-30.305-68.446-20.74-10.83 4.138-23.519 16.216-29.229 27.82-4.073 8.28-4.348 9.726-4.348 22.862 0 13.03.304 14.666 4.295 23.092 5.367 11.33 17.373 23.706 27.494 28.34 12.102 5.54 25.952 6.579 40.21 3.014zm134.504 24.995c-10.926-4.755-11.252-19.86-.548-25.395 5.827-3.014 151.54-3.041 157.362-.03 5.543 2.866 8.015 7.104 8.015 13.74 0 4.64-.783 6.589-3.897 9.703l-3.898 3.898-76.436-.053c-61.388-.041-77.255-.408-80.598-1.863zm-1.69-94.612c-6.797-3.766-8.716-13.004-4.23-20.36 4.416-7.244 6.286-7.35 120.865-6.875l103.437.43 4.041 4.523c3.642 4.077 3.978 5.19 3.395 11.255-.497 5.175-1.474 7.443-4.225 9.81l-3.58 3.078-108.258-.047c-87.3-.038-108.876-.39-111.446-1.814z" fill="currentColor" transform="translate(-117.187 -52.144)"/></svg>