<svg width="693" height="621" viewBox="0 0 693 621" fill="none" xmlns="http://www.w3.org/2000/svg">
<g clip-path="url(#clip0_52_2)">
<path d="M82.4745 618.764C54.8246 612.82 29.9029 596.239 15.1935 574C9.30388 565.096 3.13029 549.262 1.40717 538.641C-0.444503 527.228 -0.480058 306.969 1.36766 294C4.28076 273.554 13.0092 254.426 25.8014 240.455C30.3024 235.539 42.65 224.275 53.2404 215.425C63.8309 206.575 78.5814 194.233 86.0194 188C93.4574 181.767 117.192 161.917 138.764 143.889C187.796 102.911 217.117 78.1751 245.41 53.9196C288.81 16.7123 302.282 7.70595 322.131 2.62933C327.785 1.1832 335.52 0 339.318 0C355.871 0 378.187 9.05513 397.318 23.5344C407.935 31.5697 447.635 64.607 487.318 98.4309C500.518 109.682 524.218 129.761 539.985 143.052C555.752 156.342 575.004 172.643 582.769 179.275C590.533 185.907 606.733 199.708 618.769 209.944C661.389 246.192 667.098 251.361 674.013 259.968C704.225 297.568 696.94 339.242 656.756 358.692L645.507 364.137L644.922 459.069C644.509 526.168 643.867 556.15 642.732 561.333C638.144 582.28 624.292 600.048 604.617 610.224C586.215 619.742 579.372 620.667 527.318 620.667C488.065 620.667 480.589 620.339 471.579 618.226C447.412 612.558 431.479 601.22 422.173 583.067C416.071 571.163 415.566 565.979 414.676 506C413.866 451.434 413.681 448.23 410.839 439.624C395.585 393.444 348.023 372.678 305.318 393.552C295.457 398.373 280.458 412.017 275.249 420.906C269.726 430.329 265.388 443.391 264.586 453.008C264.174 457.953 263.336 484.8 262.725 512.667C261.718 558.589 261.352 564.154 258.819 572.096C251.702 594.412 234.001 611.089 209.985 618.107C203.059 620.13 194.733 620.498 147.985 620.842C99.4593 621.199 92.8182 620.988 82.4745 618.764ZM205.759 588.067C216.098 583.83 225.495 575.207 229.403 566.373C232.454 559.476 232.536 558.172 233.446 502C234.443 440.425 234.795 437.091 242.126 419.659C249.723 401.595 261.846 386.113 276.397 375.893C294.429 363.228 315.652 357.019 340.652 357.095C380.591 357.216 414.684 378.789 432.587 415.268C442.852 436.183 442.877 436.369 444.038 500C444.607 531.167 445.652 558.861 446.36 561.542C449.81 574.603 457.98 582.891 472.652 588.214C480.035 590.893 483.755 591.163 520.893 591.711C548.464 592.119 563.998 591.808 570.227 590.725C590.924 587.127 606.75 574.634 611.954 557.786C614.558 549.357 614.652 545.656 614.652 451.817C614.652 372.709 614.991 353.77 616.47 350.228C619.063 344.023 625.014 339.534 637.317 334.504C650.152 329.256 656.802 324.083 660.128 316.761C664.908 306.236 662.16 293.989 651.998 280.529C648.966 276.514 634.73 263.202 620.36 250.948C605.991 238.693 581.578 217.865 566.11 204.663C449.213 104.896 386.351 52.0002 377.311 45.799C360.335 34.1527 342.871 28.4768 331.419 30.8834C316.951 33.9239 309.118 39.0632 275.779 67.3878C249.997 89.2919 236.483 100.673 188.652 140.762C167.385 158.586 145.185 177.223 139.318 182.179C114.859 202.839 92.6374 221.489 70.9032 239.598C41.0591 264.464 33.7378 275.303 30.6285 299.222C28.9196 312.368 28.9748 521.001 30.6901 532C35.0958 560.253 62.7435 585.953 93.8546 590.714C97.5931 591.286 122.552 591.642 149.318 591.504C197.291 591.257 198.096 591.208 205.759 588.067Z" "fill="currentColor"/>
</g>
<defs>
<clipPath id="clip0_52_2">
<rect width="692.582" height="620.981" "fill="currentColor"/>
</clipPath>
</defs>
</svg>
