<svg xmlns="http://www.w3.org/2000/svg" width="791.402" height="660.057"><path d="M168 678.654c-25.58-3.16-47.054-12.325-60.584-25.855-18.73-18.731-24.76-44.547-16.587-71.012 7.136-23.104 27.457-42.387 53.171-50.458 4.78-1.5 12.672-2.411 22.667-2.617l15.333-.316.846-9.198c2.645-28.742 18.779-55.243 44.325-72.807 31.56-21.7 69.453-24.832 102.713-8.491 15.326 7.529 25.15 15.334 33.917 26.945 13.348 17.679 19.498 33.968 21.518 56.99.702 7.996 1.461 14.723 1.687 14.95.227.225 4.893-.226 10.37-1.003 26.277-3.73 51.303 1.65 69.974 15.044 17.55 12.59 30.17 42.163 27.17 63.67-4.574 32.797-22.157 51.762-56.7 61.157l-13.153 3.578-124 .247c-68.2.135-127.9-.235-132.667-.824zm266.667-32.958c18.12-6.134 27.612-15.648 30.765-30.836 3.915-18.86-9.971-42.839-28.342-48.94-8.999-2.99-32.727-2.028-50.423 2.042-14.427 3.318-21.487 2.944-26.093-1.382-4.888-4.592-5.844-9.742-5.553-29.913.394-27.268-3.982-39.822-19.681-56.464-14.818-15.708-32.298-22.522-54.007-21.053-20.286 1.372-33.406 7.282-47.444 21.371-6.25 6.274-10.862 12.41-13.64 18.146-4.576 9.453-8.212 27.183-8.307 40.508-.094 13.223-1.844 19.623-6.505 23.787-5.402 4.827-10.068 4.774-25.892-.295-16.34-5.234-23.911-5.235-34.877-.001-10.875 5.19-22.156 17.098-25.373 26.784-5.243 15.784.206 33.841 13.372 44.312 10.092 8.027 20.408 12.031 38 14.75 1.833.283 60.033.426 129.333.317l126-.199zM858 611.4c-2.2-.993-41.498-39.365-87.33-85.27-45.83-45.905-84.362-83.463-85.624-83.463-1.263 0-6.365 2.624-11.338 5.83-30.19 19.47-63.301 30.268-105.152 34.288-12.25 1.177-19.44 1.175-30-.007-67.597-7.569-111.606-28.189-153.463-71.903-42.708-44.602-62.42-95.414-62.425-160.91-.002-24.556 4.692-53.492 12.208-75.259 5.998-17.368 21.25-47.253 31.322-61.372C398.34 68.273 449.373 34.86 502.63 24.008c28.602-5.83 70.032-6.098 98.56-.64 22.35 4.276 51.925 15.759 72.565 28.173 72.578 43.655 116.217 129.794 108.987 215.126-3.045 35.94-9.8 60.784-24.623 90.569-10.692 21.483-29.75 47.344-42.727 57.977-3.333 2.731-6.06 5.397-6.06 5.923 0 .526 37.243 38.136 82.761 83.577 45.519 45.442 83.619 84.24 84.667 86.221 1.048 1.98 1.906 5.384 1.906 7.565 0 4.563-5.323 11.606-9.726 12.87-6.221 1.784-7.056 1.786-10.941.032zM577.333 451.824c32.051-3.594 66.173-17.212 93.587-37.348 24.844-18.25 51.62-50.275 63.845-76.365 12.721-27.146 18.515-51.686 19.545-82.79.584-17.608.25-22.269-2.786-38.789-8.475-46.13-28.309-83.182-61.713-115.292-39.341-37.817-95.64-57.542-151.573-53.106-32.397 2.57-61.568 11.756-87.975 27.707-58.437 35.298-93.72 94.79-98.94 166.826-2.939 40.557 11.374 90.541 35.733 124.785 9.718 13.662 36.429 39.883 51.247 50.306 21.324 15 49.465 27.142 74.804 32.276 20.04 4.06 39.213 4.595 64.226 1.79z" fill="currentColor" transform="translate(-87.265 -19.448)"/></svg>