<?xml version="1.0" encoding="UTF-8" standalone="no"?>
<!-- Created with Inkscape (http://www.inkscape.org/) -->

<svg
   version="1.1"
   id="svg1"
   width="791.40192"
   height="660.05731"
   viewBox="0 0 791.40192 660.05731"
   xmlns="http://www.w3.org/2000/svg"
   xmlns:svg="http://www.w3.org/2000/svg">
  <defs
     id="defs1" />
  <g
     id="g1"
     transform="translate(-87.264778,-19.448362)">
    <path
       style="fill="currentColor"
       d="M 168,678.65363 C 142.42067,675.49356 120.94647,666.32917 107.41587,652.79857 88.685319,634.06802 82.655314,608.25163 90.82946,581.78682 97.965478,558.68309 118.2855,539.39981 144,531.32908 c 4.7799,-1.50021 12.67233,-2.41154 22.66667,-2.61729 L 182,528.39612 l 0.84639,-9.19807 c 2.64478,-28.74195 18.77855,-55.24333 44.32443,-72.80742 31.56007,-21.69915 69.45285,-24.83165 102.71355,-8.49105 15.32555,7.52926 25.15041,15.33476 33.9166,26.94552 13.34755,17.67874 19.49814,33.9682 21.5184,56.99012 0.70165,7.9957 1.46082,14.72273 1.68704,14.94895 0.22622,0.22622 4.89233,-0.22474 10.36912,-1.00214 26.27791,-3.72998 51.30343,1.65025 69.97405,15.0437 17.55057,12.58997 30.17035,42.16307 27.17053,63.67119 -4.57421,32.79609 -22.15706,51.76103 -56.69952,61.15635 l -13.15391,3.57778 -124.00001,0.24663 c -68.2,0.13565 -127.9,-0.23517 -132.66667,-0.82405 z m 266.66668,-32.95729 c 18.11977,-6.1343 27.61193,-15.64846 30.7649,-30.83621 3.91532,-18.86002 -9.97075,-42.83916 -28.34114,-48.94083 -8.99911,-2.98902 -32.72751,-2.02772 -50.42377,2.0428 -14.4262,3.31834 -21.48698,2.94431 -26.09236,-1.38222 -4.88833,-4.59235 -5.84425,-9.74165 -5.5531,-29.91323 0.39357,-27.2675 -3.98251,-39.82196 -19.6814,-56.46361 -14.81815,-15.70802 -32.29783,-22.52218 -54.00647,-21.05351 -20.28587,1.37242 -33.40644,7.28279 -47.44387,21.37185 -6.25038,6.27338 -10.86272,12.40927 -13.63975,18.14527 -4.57661,9.45309 -8.21295,27.18352 -8.30778,40.50799 -0.0941,13.22375 -1.84406,19.62331 -6.50465,23.78754 -5.40198,4.82666 -10.06841,4.7734 -25.89258,-0.29553 -16.33964,-5.23405 -23.91071,-5.23422 -34.87641,-7.7e-4 -10.87559,5.19044 -22.15667,17.09849 -25.37362,26.78382 -5.24257,15.78389 0.20666,33.84162 13.37199,44.31233 10.09273,8.02699 20.40879,12.03122 38,14.74991 1.83333,0.28334 60.03333,0.4259 129.33334,0.31679 l 126,-0.19836 z m 423.33334,-34.29592 c -2.2,-0.99364 -41.4982,-39.36522 -87.32934,-85.27019 -45.83113,-45.90497 -84.36242,-83.46358 -85.62509,-83.46358 -1.26267,0 -6.36447,2.62401 -11.33733,5.83114 -30.18956,19.46998 -63.30146,30.2669 -105.15271,34.28753 -12.25035,1.17689 -19.43937,1.17512 -30,-0.007 -67.59687,-7.56905 -111.60574,-28.1889 -153.46303,-71.90335 -42.7073,-44.60218 -62.41977,-95.41417 -62.42473,-160.90957 -0.002,-24.55663 4.69213,-53.49232 12.20861,-75.25891 5.99783,-17.36878 21.24907,-47.25304 31.3212,-61.37277 32.14386,-45.061196 83.17561,-78.472815 136.43362,-89.326104 28.60225,-5.828769 70.03222,-6.097699 98.55975,-0.639771 22.3492,4.275883 51.92539,15.758835 72.5652,28.173434 72.5777,43.654615 116.2172,129.793281 108.98682,215.125771 -3.04522,35.93955 -9.79976,60.78428 -24.62293,90.56877 -10.6916,21.48282 -29.75029,47.34417 -42.72696,57.97758 -3.33286,2.73103 -6.05975,5.39621 -6.05975,5.92262 0,0.52641 37.2424,38.13624 82.7609,83.5774 45.5185,45.44116 83.6185,84.24049 84.66667,86.22074 1.04817,1.98025 1.90577,5.38421 1.90577,7.56437 0,4.56326 -5.32262,11.60686 -9.72523,12.86971 -6.22165,1.78462 -7.05672,1.78711 -10.94144,0.0326 z M 577.33335,451.82396 c 32.05104,-3.59445 66.17231,-17.21156 93.5863,-37.34838 24.84398,-18.24904 51.61962,-50.27494 63.84576,-76.36485 12.72071,-27.14528 18.51422,-51.68574 19.54504,-82.78992 0.58354,-17.60773 0.24871,-22.26872 -2.78647,-38.78857 C 743.04859,170.40241 723.21537,133.35009 689.81055,101.23952 650.46984,63.423031 594.17034,43.697619 538.23803,48.133704 505.8413,50.703142 476.6702,59.890441 450.26344,75.840876 391.82599,111.13876 356.54252,170.63093 351.3228,242.66666 c -2.93877,40.55711 11.37444,90.54164 35.73272,124.78562 9.71812,13.66216 36.42902,39.88226 51.24725,50.30559 21.32419,14.99971 49.4657,27.14219 74.80397,32.27638 20.0401,4.06064 39.21322,4.59491 64.22661,1.78971 z"
       id="path1" />
  </g>
</svg>
