<?xml version="1.0" encoding="UTF-8" standalone="no"?>
<!-- Created with Inkscape (http://www.inkscape.org/) -->

<svg
   version="1.1"
   id="svg1"
   width="710.78796"
   height="735.71118"
   viewBox="0 0 710.78796 735.71118"
   xmlns="http://www.w3.org/2000/svg"
   xmlns:svg="http://www.w3.org/2000/svg">
  <defs
     id="defs1" />
  <g
     id="g1"
     transform="translate(-205.50227,-81.469376)">
    <path
       style="fill="currentColor"
       d="m 539.86775,815.34271 c -1.90607,-1.03612 -7.2917,-7.16209 -11.96806,-13.61329 -16.14626,-22.27429 -42.47878,-47.12845 -67.23302,-63.4584 -16.99635,-11.2122 -49.0075,-26.40523 -70.61811,-33.51655 -30.52461,-10.04461 -57.37515,-14.41319 -102.71523,-16.71176 -29.05952,-1.4732 -41.77339,-4.11623 -54.77438,-11.3868 -10.13252,-5.66643 -19.55079,-16.04506 -23.58438,-25.98926 L 206,643.33332 l -0.39792,-148 c -0.28562,-106.23267 0.0286,-150.25769 1.11357,-155.99999 4.4214,-23.4017 18.59794,-38.30843 43.95102,-46.21482 9.45748,-2.94933 11.91689,-3.1144 45.33333,-3.04269 38.52197,0.0827 52.2268,1.5162 82,8.57724 44.73855,10.61023 83.8339,29.32527 114,54.57206 18.8273,15.75705 37.25041,38.33892 46.2519,56.69261 2.00032,4.07858 4.04534,7.41559 4.54449,7.41559 0.49915,0 2.97908,-4.35 5.51095,-9.66666 16.90955,-35.50832 47.84851,-65.35668 88.08526,-84.98027 23.96573,-11.68815 39.75991,-15.77481 45.00192,-11.64399 6.46226,5.0924 8.59531,14.8567 4.51737,20.67877 -2.43452,3.47577 -8.94231,6.95328 -19.24522,10.28391 -9.59638,3.10222 -29.4213,13.04081 -38.66667,19.38428 -21.9123,15.03457 -39.12907,34.12717 -50.44753,55.94396 -14.18333,27.33895 -17.19189,42.31669 -18.88168,94 -1.36478,41.74259 -1.75161,251.33333 -0.46388,251.33333 0.43018,0 7.90104,-6.86348 16.60193,-15.25217 40.73045,-39.26902 99.87655,-66.5444 166.1997,-76.64343 22.69122,-3.45519 31.05075,-4.08459 70.99146,-5.34509 25.96507,-0.81944 35.10283,-1.56123 38.66667,-3.13892 8.19427,-3.62755 15.71219,-9.98833 19.57751,-16.56417 L 874,639.33332 l 0.66667,-115.7767 0.66666,-115.77669 4.32305,-3.86199 c 7.62468,-6.81148 15.00469,-6.79534 21.8478,0.0478 l 3.82915,3.82915 v 112.15878 c 0,122.54453 -0.084,124.05769 -7.77045,140.04635 -4.5226,9.40743 -17.49337,22.3767 -26.89621,26.89308 -14.78425,7.10119 -20.35488,7.87685 -65.33334,9.09712 -36.15171,0.98081 -44.69207,1.62378 -61.33333,4.61754 -52.29348,9.40761 -87.67838,23.26956 -124.78721,48.88507 -14.67046,10.12674 -38.9502,33.93169 -50.64652,49.65614 -5.46245,7.34368 -11.5745,14.43545 -13.58233,15.75948 -4.34098,2.86258 -10.33235,3.03471 -15.11619,0.43429 z M 529.29627,636.99999 C 529.31965,494.34006 528.03351,468.0786 519.81155,443.33332 499.07534,380.92443 433.84294,336.10027 344,322.52518 c -23.96856,-3.6216 -68.50677,-4.36133 -79.33333,-1.31764 -13.12006,3.68847 -20.01675,8.66448 -25.12211,18.12579 l -2.87789,5.33333 -0.37103,143.33333 c -0.41324,159.64377 -0.9234,150.32719 8.69394,158.77132 9.42007,8.27094 17.78258,10.18945 51.67709,11.85569 39.77179,1.95516 68.85094,7.28585 105.33333,19.30935 46.47125,15.31554 84.68901,37.43268 114.66494,66.35817 5.86762,5.662 11.10572,10.312 11.64022,10.33334 0.5345,0.0213 0.98051,-52.91121 0.99111,-117.62787 z M 772.39812,371.1678 c -6.17283,-3.04379 -7.91067,-6.47517 -13.04347,-25.7544 -7.50532,-28.19063 -15.37094,-42.85143 -32.37781,-60.34922 -14.79758,-15.22475 -32.08773,-25.92489 -61.95555,-38.34167 -11.3234,-4.70741 -16.41814,-9.48489 -17.76374,-16.65753 -2.14248,-11.42045 3.34731,-18.36084 19.74859,-24.96683 19.22407,-7.74295 38.71278,-17.81751 47.85213,-24.73684 22.44913,-16.99609 36.88424,-39.93541 45.09026,-71.65448 2.27092,-8.777902 5.04412,-17.356546 6.16266,-19.06365 5.21128,-7.953422 17.37974,-10.64262 25.56766,-5.650385 6.37353,3.885986 8.89569,9.028421 12.95461,26.413165 4.75544,20.368 9.83968,32.94955 18.20495,45.05035 14.19569,20.53478 32.55446,34.21218 62.59808,46.63594 9.74959,4.03169 19.7294,8.56819 22.17735,10.08111 11.06759,6.84014 11.66622,22.99508 1.10845,29.9128 -1.78232,1.16782 -10.32396,4.80975 -18.98143,8.09318 -38.13781,14.46415 -60.76658,33.45564 -76.0997,63.86764 -4.43208,8.79069 -8.25367,20.92364 -11.6418,36.96088 -3.93021,18.60306 -16.03701,26.8484 -29.60124,20.15994 z m 12.87153,-70.63189 c 7.59693,-18.32896 27.71163,-42.38732 47.30861,-56.58388 4.35137,-3.15224 12.98844,-8.27962 19.19348,-11.39416 l 11.28189,-5.66281 -9.86015,-4.91075 c -31.91254,-15.89371 -57.86543,-42.54672 -68.47054,-70.31765 -1.33021,-3.48333 -2.82664,-6.33333 -3.3254,-6.33333 -0.49876,0 -2.25416,3.25066 -3.90089,7.22369 -4.65231,11.22454 -17.68848,29.87443 -27.72162,39.65927 -11.38147,11.0998 -26.17678,21.68804 -39.51387,28.27802 C 704.61752,223.28289 700,226.02132 700,226.57972 c 0,0.5584 2.55,2.15058 5.66667,3.53817 9.74283,4.33768 28.4196,17.54426 39.34186,27.81914 11.4727,10.79269 24.9579,28.69879 31.42686,41.72963 2.27533,4.58333 4.49777,8.33333 4.93877,8.33333 0.44099,0 2.19396,-3.35883 3.89549,-7.46408 z"
       id="path1" />
  </g>
</svg>
